<?xml version="1.0" encoding="UTF-8"?>
<svg id="Layer_2" data-name="Layer 2" xmlns="http://www.w3.org/2000/svg" viewBox="0 0 434.9 294.63">
  <defs>
    <style>
      .cls-1 {
        fill: #ffc000;
        stroke-width: 0px;
      }
    </style>
  </defs>
  <g id="Layer_2-2" data-name="Layer 2">
    <g id="Layer_1-2" data-name="Layer 1-2">
      <g>
        <path class="cls-1" d="m2.67,38.18c72.23,60.32,143.42,119.77,214.83,179.4,71.35-59.58,142.44-118.95,214.87-179.43.93,7.34,2.38,13.57,2.41,19.81.19,46.66.11,93.32.11,139.98,0,12.67.01,25.33,0,38-.03,30.43-19.42,53.4-49.33,58.38-1.95.32-3.98.28-5.97.28-108.08.02-216.16.06-324.24,0-30.13-.02-54.96-25.17-55.15-56.71-.35-60.66-.16-121.32.02-181.98.02-5.53,1.49-11.06,2.45-17.73h0Z"/>
        <path class="cls-1" d="m19.49,14.29C31.15,4.02,44.43,0,59.22,0c65,.02,130,0,194.99,0,40.56,0,81.12.02,121.69,0,12.78,0,24.62,3.02,35.11,10.6,1.44,1.04,2.76,2.23,4.52,3.67-66.1,55.2-131.82,110.08-198.04,165.39C151.57,124.6,85.66,69.55,19.49,14.29Z"/>
      </g>
    </g>
  </g>
</svg>