<?xml version="1.0" encoding="UTF-8"?>
<svg id="Layer_2" data-name="Layer 2" xmlns="http://www.w3.org/2000/svg" viewBox="0 0 468.68 429.84">
  <defs>
    <style>
      .cls-1 {
        fill: #9ca3af;
        stroke-width: 0px;
      }
    </style>
  </defs>
  <g id="Layer_2-2" data-name="Layer 2">
    <g>
      <path class="cls-1" d="m233.26,0c5.65,0,11.31,0,16.96,0,5.05,4.04,7.77,8.95,7.77,15.75-.11,132.49-.08,264.97-.09,397.46,0,12.53-7.49,18.49-19.73,16.13-27.17-5.24-54.35-10.35-81.54-15.45-48.2-9.05-96.41-18.03-144.61-27.09C4.47,385.37.01,379.79.01,371.95,0,267.06,0,162.17,0,57.28c0-8.39,4.53-13.62,12.79-15.15,18.41-3.41,36.81-6.85,55.22-10.31,47.21-8.87,94.42-17.73,141.62-26.67,7.92-1.5,15.75-3.42,23.63-5.15Zm-100.84,188.25c-11.94-13.64-23.3-26.65-34.69-39.63-6.39-7.28-14.96-8.23-21.5-2.43-6.31,5.6-6.54,14.33-.46,21.33,7.3,8.41,14.67,16.76,21.98,25.16,5.52,6.33,11,12.7,16.5,19.04-6.8,8.76-13.22,17.03-19.64,25.29-6.52,8.4-13.11,16.75-19.54,25.22-5.64,7.44-4.79,16,1.91,21.25,6.65,5.2,15.18,3.82,20.99-3.49,4.55-5.72,9-11.53,13.48-17.3,7.31-9.41,14.62-18.82,22.22-28.59,1.7,1.84,3.07,3.24,4.35,4.71,12.26,14.01,24.49,28.05,36.75,42.06,4.02,4.59,8.91,6.91,15.08,5.12,11.15-3.23,14.31-15.37,6.31-24.61-13.6-15.71-27.24-31.39-41.06-46.9-2.63-2.95-2.68-4.81-.22-7.92,14.11-17.86,28.04-35.86,41.92-53.91,5.82-7.57,4.89-16.46-1.94-21.63-6.59-4.99-15.29-3.41-21.01,3.88-4.72,6.01-9.38,12.08-14.06,18.11-8.95,11.53-17.91,23.05-27.37,35.22Z"/>
      <path class="cls-1" d="m268.5,113.58v-56.91c1.87-.12,3.63-.33,5.4-.33,59.04-.02,118.07.07,177.11-.08,11.68-.03,17.7,6.66,17.67,17.69-.26,93.94-.15,187.88-.15,281.82,0,11.34-5.43,16.9-16.7,16.91-59.37.03-118.74.01-178.11,0-1.63,0-3.25-.17-5.17-.28v-56.68c1.71-.08,3.46-.22,5.2-.22,12.14-.02,24.28.17,36.42-.07,12.14-.24,19.08-12.08,13.13-22.06-3.12-5.23-8.04-7.2-13.89-7.22-11.64-.04-23.28-.01-34.92-.01-1.81,0-3.61,0-5.84,0v-28.42c3.81,0,7.43,0,11.04,0,10.14,0,20.29.05,30.43-.02,8.49-.06,14.73-5.59,15.19-13.28.51-8.54-4.81-14.98-13.96-15.39-12.45-.56-24.93-.47-37.4-.26-4.58.08-6.12-1.29-5.83-5.89.38-5.96.26-11.97.03-17.95-.13-3.46,1.05-4.65,4.53-4.61,11.97.15,23.95.05,35.92.05,6.15,0,11.5-1.6,14.79-7.37,5.45-9.56-1.03-21.39-12.03-21.58-12.3-.21-24.61-.06-36.92-.06-1.8,0-3.61,0-5.82,0v-28.46c12.79,0,25.38,0,37.97,0,1.99,0,4.02.13,5.97-.18,7.91-1.23,13.07-7.49,12.75-15.28-.32-7.69-6.43-13.61-14.87-13.77-11.8-.23-23.61-.07-35.42-.07-1.98,0-3.96,0-6.55,0Zm113.91,201.89c4.65,0,9.3.13,13.94-.03,8.86-.29,14.97-6.35,14.98-14.63,0-8.29-6.05-14.41-14.96-14.62-9.12-.22-18.26-.21-27.39,0-8.76.2-15.19,6.58-15.19,14.6,0,8.01,6.48,14.35,15.16,14.65,4.48.15,8.96.03,13.44.03Zm.13-172.6c4.65,0,9.3.12,13.94-.03,8.57-.26,14.68-6.2,14.84-14.24.16-8.4-5.73-14.69-14.58-14.95-9.29-.27-18.59-.24-27.88-.02-8.73.21-15.14,6.7-15.05,14.71.09,8.05,6.59,14.27,15.29,14.5,4.48.12,8.96.02,13.44.02Zm.1,28.49c-4.98,0-9.96-.12-14.93.03-7.39.22-13.41,6.23-13.88,13.65-.44,7.01,4.85,14.32,12.01,14.7,11.23.61,22.54.65,33.76-.02,7.58-.45,12.18-7.33,11.68-15.26-.46-7.24-6.29-12.88-13.71-13.08-4.97-.13-9.95-.03-14.93-.02Zm-.49,86.34c4.98,0,9.95.09,14.93-.02,7.83-.17,13.74-5.7,14.21-13.12.52-8.34-4.4-14.93-12.67-15.37-10.57-.56-21.21-.52-31.78,0-7.84.38-13.47,7.42-12.99,14.82.49,7.61,6.59,13.47,14.38,13.67,4.64.11,9.29.02,13.93.03Z"/>
    </g>
  </g>
</svg>