<?xml version="1.0" encoding="UTF-8"?>
<svg id="Layer_2" data-name="Layer 2" xmlns="http://www.w3.org/2000/svg" viewBox="0 0 80 71">
  <defs>
    <style>
      .cls-1 {
        fill: #fdbf10;
      }

      .cls-1, .cls-2 {
        stroke-width: 0px;
      }

      .cls-2 {
        fill: #fdbf0f;
      }
    </style>
  </defs>
  <g id="Layer_1-2" data-name="Layer 1">
    <g>
      <path class="cls-2" d="m57.63,36.63c1.81-7.03,3.6-13.1,4.88-19.28.73-3.52,2.14-4.76,5.86-4.64,8.38.28,8.39.06,8.39,8.23,0,9.52-.19,19.04.09,28.55.11,3.76-1.75,3.74-4.48,3.82-2.93.08-4.42-.34-4.31-3.9.27-8.85.09-17.71-.59-26.71-2.26,9-4.53,18-6.75,27-.48,1.95-.72,3.56-3.55,3.66-3.24.12-4.2-1.25-4.79-4.05-1.87-8.9-3.95-17.76-6.77-26.5,0,8.94-.09,17.88.05,26.81.04,2.7-.63,3.77-3.54,3.71-2.62-.06-3.77-.55-3.73-3.5.16-11.16.15-22.32,0-33.48-.04-2.79.81-3.57,3.6-3.61,9.43-.14,9.34-.24,11.65,8.96,1.18,4.68,1.65,9.57,3.99,14.93Z"/>
      <path class="cls-1" d="m30.7,53.14c-3.47.91-4.94-.85-5.09-4.01-.22-4.83-3.3-4.87-7.06-4.87-3.67,0-6.47.28-6.62,4.8-.17,5.5-4.26,4.14-7.48,4.12-2.02,0-1.26-1.36-.95-2.41,3.59-11.9,7.23-23.77,10.74-35.69,1.09-3.71,3.95-1.91,6.09-2.23,2.28-.35,3.83.11,4.6,2.95,2.95,10.89,6.18,21.71,9.49,32.5,1.14,3.71,1.22,6.08-3.72,4.83Zm-15.78-15.67c2.2,0,3.97.02,5.75,0,1.03-.02,2-.15,1.56-1.64-1.24-4.11-1.65-8.48-3.87-13.23-1.25,5.4-2.29,9.91-3.43,14.88Z"/>
    </g>
  </g>
</svg>