<?xml version="1.0" encoding="UTF-8"?>
<svg id="Layer_2" data-name="Layer 2" xmlns="http://www.w3.org/2000/svg" viewBox="0 0 512 510.4">
  <defs>
    <style>
      .cls-1 {
        fill: #9ca3af;
        stroke-width: 0px;
      }
    </style>
  </defs>
  <g id="Layer_2-2" data-name="Layer 2">
    <path class="cls-1" d="m512,247.91v13.97c-.43,2.59-.93,5.17-1.27,7.77-1.6,12.3-2.35,24.77-4.85,36.89-11.83,57.32-40.44,104.98-85.04,142.8-39.72,33.69-85.68,53.43-137.67,58.82-6.73.7-13.45,1.49-20.18,2.24h-14c-2.59-.42-5.16-.93-7.76-1.26-12.01-1.49-24.23-1.99-36.01-4.54-75.15-16.26-132.33-57.65-171.16-123.9-17.86-30.47-28.31-63.48-31.82-98.65-.67-6.73-1.49-13.45-2.24-20.17,0-4.66,0-9.32,0-13.97.41-2.26.96-4.51,1.21-6.78,1.13-10.37,1.47-20.89,3.38-31.11,11-58.69,38.55-108.32,84.01-147.26C150.15,10.06,221.69-9.41,301.35,4.2c62.44,10.67,113.72,41.94,153.6,91.14,31.44,38.79,49.77,83.17,54.85,132.91.67,6.56,1.47,13.11,2.2,19.66Zm-111.88,150.88c.12-1.51.27-2.49.27-3.46-.02-43.75.43-87.5-.36-131.24-.25-14.12-2.68-28.45-6.03-42.22-5.51-22.7-19.04-38.82-42.7-44.86-12.29-3.14-24.84-3.15-37.23-1.96-17.76,1.7-34.36,6.19-41.91,25.61v-25.61h-64.16v223.54h64.4v-6.9c0-38.76-.03-77.51.04-116.27,0-4.47.36-8.98,1.03-13.39,1.73-11.35,10.49-20.19,21.86-21.56,5.54-.67,11.32-.79,16.83,0,10.79,1.53,18.45,7.59,21.36,18.32,1.33,4.91,1.94,10.15,1.96,15.24.16,39.42.09,78.84.09,118.27,0,2.09,0,4.19,0,6.51h64.54Zm-288.24-.07h64.22v-223.76h-64.22v223.76ZM176.41,127.22c0-18.41-14.03-32.42-32.47-32.41-18.18,0-32.32,14-32.36,32.02-.04,18.53,13.89,32.65,32.21,32.67,18.49.02,32.6-13.95,32.61-32.28Z"/>
  </g>
</svg>