<?xml version="1.0" encoding="UTF-8"?>
<svg id="Layer_2" data-name="Layer 2" xmlns="http://www.w3.org/2000/svg" viewBox="0 0 510.96 512">
  <defs>
    <style>
      .cls-1 {
        fill: #ffc000;
        stroke-width: 0px;
      }
    </style>
  </defs>
  <g id="Layer_1-2" data-name="Layer 1">
    <path class="cls-1" d="m161.64,0c4.76,2.51,9.93,4.47,14.18,7.65,8.72,6.52,10.32,16.52,11.72,26.58,4.79,34.42,9.64,68.83,14.74,103.21,1.92,12.93-.79,23.78-10.49,33.12-15.23,14.65-29.94,29.83-44.86,44.81-5.86,5.88-6.24,9.81-1.88,16.77,34.36,54.98,78.94,99.71,133.79,134.18,7.59,4.77,11.15,4.44,17.53-1.95,14.82-14.83,29.83-29.49,44.37-44.59,9-9.35,19.48-12.49,32.06-10.65,36.94,5.41,73.91,10.58,110.85,15.99,13.25,1.94,21.91,9.61,26.19,22.3.3.88.73,1.72,1.11,2.57v138c-.78,1.57-1.65,3.09-2.31,4.71-4.08,9.97-11.86,15.75-21.64,19.29h-20.96c-.87-.34-1.71-.85-2.61-.98-24.75-3.77-49.86-5.95-74.2-11.52-93.8-21.46-174.88-66.68-242.91-134.86-60.51-60.64-102.73-132.33-126.82-214.66C8.24,111.5,1.77,72.2.04,32.15-.59,17.62,6.91,6.98,20.57,1.84,21.75,1.4,22.8.62,23.91,0,69.82,0,115.73,0,161.64,0Z"/>
  </g>
</svg>