<?xml version="1.0" encoding="UTF-8"?>
<svg id="Layer_2" data-name="Layer 2" xmlns="http://www.w3.org/2000/svg" viewBox="0 0 599.42 800">
  <defs>
    <style>
      .cls-1 {
        fill: #9ca3af;
        stroke-width: 0px;
      }
    </style>
  </defs>
  <g id="Layer_1-2" data-name="Layer 1">
    <path class="cls-1" d="m252.17,799.49c-74.88-5.4-148.9-24.25-194.29-49.48-25.86-14.37-45.55-32.04-53.28-47.78l-4.6-9.37V105.25l3.64-7.39C19.9,64.85,71.8,35.08,144.25,17.22c24.59-6.06,60.1-12.1,89.06-15.15,29.58-3.11,107.97-2.64,137.48.83,78.41,9.21,145.14,29.84,186.26,57.57,15.86,10.7,32.13,27.81,37.64,39.59l4.73,10.1-.4,292.92-.4,292.92-3.79,7.71c-2.09,4.24-8.39,12.58-14.01,18.53-34.19,36.25-107.53,63.06-203.73,74.48-19.61,2.33-104.79,4.21-124.91,2.76h0Zm138-251.75c-.29-.75-11.48-10.72-24.88-22.16s-24.93-21.34-25.64-21.99,1.77-2.98,5.5-5.17c3.73-2.19,10.88-8.27,15.88-13.52,14.63-15.35,21.54-34.3,21.54-59.13s-7.45-44.17-22.36-59.22c-15.03-15.18-32.29-21.7-57.43-21.7-38.74,0-68.5,22.61-78,59.26-3.27,12.61-3.25,38.08.03,49.26,8.56,29.16,31.89,50.34,60.92,55.31,9.82,1.68,11.16,2.41,17.85,9.73,3.98,4.35,12.15,13.04,18.15,19.3l10.91,11.39h29.01c15.96,0,28.78-.61,28.49-1.36h0Zm-99.5-81.24c-6.99-3.64-9.63-6.47-13.61-14.57-3.08-6.25-3.6-9.81-3.64-24.59-.03-15.02.44-18.27,3.66-24.79,5.26-10.67,12.5-15.73,23.7-16.54,15.6-1.13,24.6,6.52,29.31,24.92,5.78,22.55-.58,46.53-14.45,54.48-7.28,4.17-18.14,4.65-24.97,1.09h0Zm-128.61,41.86c30.42-5.77,47.69-23.46,47.69-48.86,0-22.53-11.15-35.66-41.96-49.41-17.64-7.87-24.03-12.82-24.03-18.59,0-4.79,6.06-10.03,13.12-11.35,6.89-1.29,25.17,1.89,35.96,6.25l9.05,3.66v-40.06l-9.82-2.18c-6.07-1.35-18.82-2.15-33.39-2.11-20.63,0-24.67.5-32.44,3.59-22.68,9-33.44,24.34-33.27,47.41.16,21.6,11.56,35.07,39.91,47.19,16.73,7.15,23.44,12.6,23.44,19.03,0,13.67-22.78,15.36-46.91,3.46-6.61-3.26-12.54-6.19-13.19-6.51s-1.18,9.03-1.18,20.79c0,21.28.02,21.39,3.88,22.85,14.51,5.52,46.59,7.98,63.13,4.84Zm347.78-19.74v-18.07h-54.99v-124.12h-48.71v160.26h103.7v-18.07h0Zm-169.69-316.63c48.39-3.36,84.67-9.69,116.59-20.37,31.8-10.63,50.59-23.5,54.79-37.52,1.62-5.4,1.5-7.45-.76-13.38-10.15-26.57-66.82-46.98-153.43-55.25-37.05-3.54-104.42-2.39-139.74,2.38-53.9,7.28-97.64,20.81-117.09,36.21-39.34,31.15,2.26,65.42,99.02,81.55,41.95,6.99,96.31,9.46,140.62,6.39h0Z"/>
  </g>
</svg>