<?xml version="1.0" encoding="UTF-8"?>
<svg id="Layer_2" data-name="Layer 2" xmlns="http://www.w3.org/2000/svg" viewBox="0 0 510.72 503.24">
  <defs>
    <style>
      .cls-1 {
        fill: #9ca3af;
        stroke-width: 0px;
      }
    </style>
  </defs>
  <g id="Layer_1-2" data-name="Layer 1">
    <g>
      <path class="cls-1" d="m510.72,259.49h-43.2v47.61h-18.56v-47.37h-42.78v-17.39h42.48v-47.31h18.69v47.5h43.37v16.97Z"/>
      <path class="cls-1" d="m262.2,0c.17,9.63.38,19.25.5,28.88.07,5.81.01,11.61.01,18.1h41.34v12.67h-41.25v46.63h-14.67v-46.33h-41.7v-12.69h41.8V0h13.97Z"/>
      <path class="cls-1" d="m339.13,238.08v25.33h-70.04v76.48h-27.33v-76.2h-70.03v-25.38c2.07,0,4,0,5.93,0,19.62,0,39.24-.11,58.85.09,4.19.04,5.35-1.26,5.31-5.36-.18-21.44-.08-42.89-.08-64.34,0-1.97,0-3.94,0-6.69,8.65,0,16.88-.13,25.09.21.78.03,2.06,2.95,2.07,4.53.14,21.61.09,43.22.09,64.84,0,1.98,0,3.95,0,6.48h70.14Z"/>
      <path class="cls-1" d="m196.78,382.64h-62.21v67.57h-23.73v-67.42h-62.83v-19.66h62.74v-68.68h23.56v68.45h62.48v19.75Z"/>
      <path class="cls-1" d="m399.03,382.73v68.09h-22.81v-67.91h-63.86v-19.64h63.53v-69.17h22.81v68.7h63.55v19.93h-63.22Z"/>
      <path class="cls-1" d="m461.14,117.5v19.82h-62.47v67.71h-22.48v-67.74h-62.6v-19.79h62.47V48.83h22.25c0,2.14,0,4.1,0,6.06,0,19.29.09,38.59-.08,57.88-.03,3.72,1.05,4.85,4.79,4.81,17.46-.18,34.93-.08,52.39-.08,1.8,0,3.59,0,5.73,0Z"/>
      <path class="cls-1" d="m133.09,205.06h-20.8v-67.42h-63.46v-19.76h63V50.12h21.26c0,1.87,0,3.77,0,5.68,0,18.78.12,37.56-.09,56.34-.05,4.28.99,5.73,5.51,5.67,17.45-.26,34.9-.11,52.35-.11,1.81,0,3.63,0,5.89,0v19.53c-1.9,0-3.68,0-5.46,0-16.95,0-33.91-.03-50.86.01-8.2.02-7.31-.77-7.32,7.09-.04,18.28-.01,36.57-.01,54.85,0,1.79,0,3.59,0,5.87Z"/>
      <path class="cls-1" d="m265.03,391.61v46.38h42.26v17.34c-1.72.09-3.47.26-5.22.26-10.14.03-20.28.25-30.41-.09-4.7-.16-6.33,1.07-6.21,6.01.33,13.77.11,27.55.11,41.73h-20.14v-47.57h-41.74v-17.3h41.49v-46.75h19.85Z"/>
      <path class="cls-1" d="m56.06,303.44h-14.21v-46.05H0v-13.57h41.66v-45.69h13.54v45.49h42.92v13.43h-42.06v46.4Z"/>
    </g>
  </g>
</svg>