<?xml version="1.0" encoding="UTF-8"?>
<svg id="Layer_2" data-name="Layer 2" xmlns="http://www.w3.org/2000/svg" viewBox="0 0 510.87 510.45">
  <defs>
    <style>
      .cls-1 {
        fill: #9ca3af;
        stroke-width: 0px;
      }
    </style>
  </defs>
  <g id="Layer_2-2" data-name="Layer 2">
    <path class="cls-1" d="m257.24,510.45h-3.99c-2.46-.24-4.93-.46-7.39-.74-13.86-1.54-27.99-1.9-41.55-4.84-66.25-14.38-119.48-49.2-158.06-105.03C1,334.35-11.04,262.21,10.1,185.85,39.1,81.08,130.58,9.9,231.13,1.11c70.58-6.17,133.48,13.26,187.77,58.45,49.61,41.3,79.68,94.29,89.11,158.45,5.8,39.46,2.93,78.39-9.97,116.18-20.38,59.7-57.56,106.26-111.54,139.08-29.9,18.18-62.08,30.3-97.01,34.38-10.71,1.25-21.49,1.88-32.24,2.79Zm-1.34-334.44c-1.26-.95-1.78-1.16-2-1.55-1.65-2.88-3.22-5.81-4.87-8.69-10.08-17.68-23.45-32.1-43.98-36.41-40.36-8.48-84.7,14.24-92.44,66.14-2.95,19.8,2.46,38.44,10.94,55.94,24.71,51.04,62.82,90.1,109.82,121.09,18.19,11.99,35.37,11.13,53.29-.89,23.98-16.09,44.95-35.32,63.07-57.65,20.35-25.08,37.18-52.07,46.01-83.68,11.01-39.43-9.57-80.3-37.98-93.7-17.99-8.48-36.27-12.29-55.49-6.02-19.05,6.22-31.59,20.23-41.39,37.06-1.56,2.68-3.18,5.33-4.99,8.36Z"/>
  </g>
</svg>