<?xml version="1.0" encoding="UTF-8"?>
<svg id="Layer_2" data-name="Layer 2" xmlns="http://www.w3.org/2000/svg" viewBox="0 0 57.94 35.97">
  <defs>
    <style>
      .cls-1 {
        fill: #ffc000;
        stroke-width: 0px;
      }
    </style>
  </defs>
  <g id="Layer_2-2" data-name="Layer 2">
    <g id="Layer_1-2" data-name="Layer 1-2">
      <g>
        <path class="cls-1" d="m9.38,8.66c1.19-2.23,2.15-4.63,3.63-6.66,2.29-3.15,7.16-2.45,8.93,1.18,3.61,7.38,7.14,14.81,10.7,22.22.21.43.39.88.64,1.28.68,1.1,1.73,1.38,2.89.81.27-.14.55-.26.83-.4.09.07.18.13.27.2-1.24,2.28-2.23,4.75-3.78,6.81-2.33,3.09-7.09,2.19-8.89-1.48-1.98-4.05-3.92-8.12-5.87-12.19-1.59-3.31-3.2-6.61-4.78-9.91-1.24-2.59-1.78-2.81-4.56-1.86h-.01Z"/>
        <path class="cls-1" d="m30.11,8.66c1.14-2.18,2.05-4.51,3.46-6.5,2.34-3.31,7.23-2.67,9.08,1.05,1.81,3.64,3.54,7.33,5.31,11,1.81,3.78,3.62,7.56,5.44,11.33,1.19,2.47,1.77,2.68,4.54,1.48-.27.59-.45,1-.64,1.4-.68,1.4-1.39,2.79-2.05,4.2-1,2.13-2.69,3.27-5.01,3.28-2.34,0-3.97-1.26-4.97-3.35-3.24-6.72-6.48-13.44-9.73-20.17-.42-.86-.82-1.73-1.25-2.59-.84-1.69-1.78-1.99-3.48-1.13-.14.07-.29.13-.43.19-.09-.06-.18-.13-.26-.19h-.01Z"/>
        <path class="cls-1" d="m14.46,27.03c-1.1,2.21-2.01,4.25-3.1,6.2-1.01,1.82-2.69,2.74-4.77,2.67-2.06-.07-3.72-1.03-4.63-2.92-2.59-5.35-2.59-3.74-.15-8.75.44-.9.87-1.79,1.32-2.68.5-.97,1.28-1.48,2.4-1.48s1.91.51,2.4,1.49c.61,1.21,1.18,2.44,1.77,3.67,1.37,2.85,1.69,2.98,4.74,1.8h.02Z"/>
      </g>
    </g>
  </g>
</svg>