<?xml version="1.0" encoding="UTF-8"?>
<svg id="Layer_2" data-name="Layer 2" xmlns="http://www.w3.org/2000/svg" viewBox="0 0 176.49 224.98">
  <defs>
    <style>
      .cls-1 {
        fill: #ffc000;
        stroke-width: 0px;
      }
    </style>
  </defs>
  <g id="Layer_2-2" data-name="Layer 2">
    <g id="Layer_2-2" data-name="Layer 2-2">
      <path class="cls-1" d="m88.24,224.98c-4.13-4.85-8.12-9.51-12.08-14.18-18.33-21.61-36.63-43.26-55-64.84C8.98,131.65,1.65,115.12.3,96.46-2.05,64.18,9.52,37.57,35.37,17.85c32.69-24.94,78.35-23.59,109.73,3.12,21.42,18.23,31.91,41.64,31.37,69.83-.42,21.96-8.66,40.78-22.87,57.34-21.54,25.1-42.84,50.41-64.24,75.63-.27.31-.56.61-1.13,1.22h0Zm-.05-175.59c-20.08.1-36.11,16.28-35.97,36.28.14,19.96,16.22,35.95,36.11,35.91,19.97-.04,36.12-16.33,35.97-36.3-.15-20-16.24-35.99-36.11-35.89Z"/>
    </g>
  </g>
</svg>