<?xml version="1.0" encoding="UTF-8"?>
<svg id="Layer_2" data-name="Layer 2" xmlns="http://www.w3.org/2000/svg" viewBox="0 0 223.32 211.41">
  <defs>
    <style>
      .cls-1 {
        fill: #9ca3af;
        stroke-width: 0px;
      }
    </style>
  </defs>
  <g id="Layer_2-2" data-name="Layer 2">
    <g>
      <path class="cls-1" d="m.06,22.56C42.46,15.04,84.68,7.54,127.18,0v211.41c-3.52-.58-6.99-1.13-10.45-1.72-17.96-3.1-35.92-6.2-53.89-9.31-18.62-3.21-37.23-6.43-55.85-9.64-1.31-.23-2.61-.7-3.91-.7C.61,190.03,0,189.01,0,186.55.08,132.86.06,79.17.06,25.47c0-.83,0-1.65,0-2.91Zm56.84,94.03c5.96-.61,11.5-.98,16.97-1.79,10.33-1.54,17.44-7.41,21.23-17.05,3.07-7.81,3.26-15.87.75-23.9-3.1-9.89-9.89-15.76-20.2-16.51-7.49-.54-15.07-.02-22.61.16-4.3.1-8.6.47-13.01.72-.09.87-.22,1.51-.22,2.16-.01,27.76,0,55.51-.05,83.27,0,1.88.78,2.46,2.45,2.61,2.81.26,5.6.65,8.4.94,2.01.21,4.02.35,6.29.55v-31.16Z"/>
      <path class="cls-1" d="m201.63,158.82v-9.68h-62.19v-11.9c1.11,0,2.17,0,3.22,0,18.71,0,37.42-.05,56.12.06,2.52.01,3.28-.66,3.23-3.2-.13-6.89-.02-6.89-7.01-6.89-17.38,0-34.75,0-52.13,0h-3.41v-19.22c11.68,7.14,23.26,7.51,34.39-.75,7.38-5.48,11.95-15.48,10.98-23.01h-28.27v-28.83c-6.5-.04-12,1.63-17.21,5.15v-28.96c.91-.06,1.79-.17,2.66-.17,25.19,0,50.39-.01,75.58,0,4.74,0,5.72,1,5.72,5.66,0,45.8,0,91.61,0,137.41,0,4.85-1.13,5.95-6.06,5.95-25.03,0-50.05,0-75.08,0-.89,0-1.79,0-2.79,0v-21.62h62.25Zm-12.18-79.38c.97-14.94-12.68-29.51-28.39-28.8v28.8h28.39Z"/>
      <path class="cls-1" d="m56.91,100.14c0-4.56,0-9.19,0-13.82,0-3.32,0-6.64,0-9.96,0-3.68,0-3.76,3.81-3.77,2.4,0,4.81.09,7.18.42,5.64.78,8.52,3.42,9.27,9.05.4,3.06.36,6.32-.23,9.34-.77,3.95-3.39,6.72-7.32,8.1-2.56.9-9.5,1.61-12.71.62Z"/>
    </g>
  </g>
</svg>