<?xml version="1.0" encoding="UTF-8"?>
<svg id="Layer_2" data-name="Layer 2" xmlns="http://www.w3.org/2000/svg" viewBox="0 0 375.06 424.91">
  <defs>
    <style>
      .cls-1 {
        fill: #9ca3af;
        stroke-width: 0px;
      }
    </style>
  </defs>
  <g id="Layer_1-2" data-name="Layer 1">
    <g>
      <path class="cls-1" d="m375.06,234.73c0,27.6.02,55.2,0,82.8-.03,34.26-35.21,57.44-66.71,43.81-6.98-3.02-13.76-6.57-20.46-10.19-8.01-4.32-10.91-13.5-7.06-21.31,3.92-7.96,13.22-11.18,21.61-7.31,4.96,2.29,9.97,4.56,14.65,7.36,14,8.37,26.37-1.7,26.23-16.08-.46-47.05-.17-94.11-.17-141.16,0-5.99.01-11.97,0-17.96-.02-10.63-3.35-15.49-13.16-19.22-53.84-20.5-107.67-41-161.51-61.5-34.81-13.25-69.61-26.51-104.43-39.74-14.09-5.36-24.11,1.66-24.11,16.88-.01,47.39,0,94.77-.02,142.16,0,7.83-5.84,14.79-13.11,15.85-8.07,1.18-15.45-3.17-18-10.81-.56-1.68-.76-3.56-.76-5.35-.04-49.05-.08-98.1,0-147.15C8.06,24.4,26.15,4.13,47.29.61c11.91-1.99,22.6,1.2,33.37,5.31,87.01,33.21,174.03,66.42,261.08,99.54,17.89,6.81,29.03,19.21,32.78,38.05.48,2.42.52,4.95.52,7.43.03,27.93.02,55.87.02,83.8Z"/>
      <path class="cls-1" d="m191.53,281.09c0-39.72,0-79.43,0-119.15,0-14.12,10.11-24.54,23.76-24.57,14.01-.03,24.11,10.31,24.11,24.72,0,79.43,0,158.87,0,238.3,0,12.33-8.49,22.57-20.03,24.23-12.6,1.82-23.93-5.62-27.2-18-.54-2.04-.61-4.26-.62-6.39-.03-39.72-.03-79.43-.03-119.15Z"/>
      <path class="cls-1" d="m175.57,281.4c0,29.08.01,58.15,0,87.23,0,12.47-9.04,22.96-20.67,24.12-12.88,1.28-23.91-6.35-26.78-18.64-.41-1.75-.39-3.62-.4-5.44-.02-58.48-.03-116.97,0-175.45,0-13.57,10.4-23.91,23.91-23.91,13.55,0,23.94,10.31,23.95,23.87.03,29.41,0,58.82,0,88.23Z"/>
      <path class="cls-1" d="m63.86,281.09c0-18.6-.02-37.21,0-55.81.02-13.63,10.31-24.02,23.76-24.05,13.78-.02,24.09,10.31,24.1,24.21.02,37.04.02,74.08,0,111.12,0,13.97-10.26,24.32-24.02,24.3-13.68-.01-23.84-10.42-23.85-24.47-.01-18.44,0-36.87,0-55.31Z"/>
      <path class="cls-1" d="m47.9,280.96c0,8.13.03,16.27,0,24.4-.07,13.38-10.61,23.63-24.22,23.58-13.19-.04-23.6-10.43-23.64-23.66-.04-16.27-.05-32.54,0-48.8.05-13.08,10.63-23.33,23.96-23.32,13.3,0,23.81,10.27,23.89,23.4.05,8.13,0,16.27,0,24.4Z"/>
    </g>
  </g>
</svg>