<?xml version="1.0" encoding="UTF-8"?>
<svg id="Layer_2" data-name="Layer 2" xmlns="http://www.w3.org/2000/svg" viewBox="0 0 575.87 800">
  <defs>
    <style>
      .cls-1 {
        fill: #9ca3af;
        stroke-width: 0px;
      }
    </style>
  </defs>
  <g id="Capa_1" data-name="Capa 1">
    <path class="cls-1" d="m558.25,800c9.73,0,17.61-7.89,17.61-17.61V240.15h-202.54c-29.37,0-53.25-23.9-53.25-53.29V0H17.61C7.89,0,0,7.89,0,17.61v764.77c0,9.73,7.89,17.61,17.61,17.61h540.64ZM94.97,343h390.33v313.15H94.97v-313.15Zm210.82,220.51h148.19v61.33h-148.19v-61.33h0Zm-179.5-96.55h148.19v65.24H126.28v-65.24Zm0,96.55h148.19v61.33H126.28v-61.33Zm179.5-189.19h148.19v61.33h-148.19v-61.33h0Zm0,92.64h148.19v65.24h-148.19v-65.24h0Zm-179.5-92.64h148.19v61.33H126.28v-61.33Zm232.93-187.46V40.69l171.46,160.31h-157.35c-7.79,0-14.12-6.35-14.12-14.15Z"/>
  </g>
</svg>