<?xml version="1.0" encoding="UTF-8"?>
<svg id="Layer_2" data-name="Layer 2" xmlns="http://www.w3.org/2000/svg" viewBox="0 0 251 245.75">
  <defs>
    <style>
      .cls-1 {
        fill: #9ca3af;
        stroke-width: 0px;
      }
    </style>
  </defs>
  <g id="Layer_2-2" data-name="Layer 2">
    <path class="cls-1" d="m148.09,222.78c0,6.71,0,13.01,0,19.31,0,3.44-.02,3.23-3.56,3.48-13.38.96-26.25-2.3-39.24-4.54-24.37-4.21-48.73-8.46-73.1-12.7-10.62-1.85-21.24-3.71-32.16-5.61,0-.99,0-1.88,0-2.77C.04,155.34.06,90.72,0,26.11c0-2.39.49-3.35,3.11-3.8,30.03-5.12,60.03-10.41,90.04-15.65,12.18-2.13,24.31-4.58,36.56-6.26,5.87-.8,11.94-.14,18.25-.14.04.76.13,1.64.13,2.51.01,5.65,0,11.31,0,16.96,0,3.19,0,3.2,3.32,3.21,29.44.02,58.88.05,88.33.06,7.5,0,11.1,3.65,11.11,11.21.05,55.63.13,111.27.15,166.9,0,4.31,0,8.67-.55,12.93-.78,6.06-2.86,7.81-8.95,8.31-3.48.29-6.97.47-10.46.47-26.53.02-53.06-.02-79.59-.04-.98,0-1.97,0-3.36,0Zm74.24-108.63h-74.24c0,4.01.16,7.74-.05,11.46-.14,2.52.6,3.22,3.17,3.2,22.62-.11,45.25-.06,67.87-.06h3.18v10.92c-1.26,0-2.33,0-3.39,0-18.3,0-36.6,0-54.89,0-4.57,0-9.15.04-13.72-.02-1.58-.02-2.23.52-2.18,2.17.1,3.24.19,6.5-.03,9.73-.17,2.52.81,3.02,3.12,3.01,17.22-.09,34.43-.05,51.65-.06,5.82,0,11.64-.04,17.47.06.73.01,2.04.79,2.07,1.28.19,3.12.1,6.26.1,9.63-1.12,0-1.93,0-2.74,0-15.22,0-30.44,0-45.66,0-7.9,0-15.8-.03-23.7.06-.74,0-2.1.77-2.11,1.22-.16,4.37-.1,8.76-.1,13.5h74.16v11.04h-74.19c0,1.12,0,1.93,0,2.75,0,5.82.14,11.65-.07,17.46-.09,2.63.81,3.15,3.25,3.14,29.53-.08,59.05-.05,88.58-.06.89,0,1.77-.08,2.76-.12V31.27h-94.28v20.29h73.99v11.06h-74.23c0,4.13.17,7.87-.06,11.59-.17,2.63.79,3.16,3.24,3.15,22.71-.08,45.41-.05,68.12-.04.96,0,1.92.08,2.84.12v10.74c-1.12,0-2.03,0-2.94,0-22.37,0-44.75,0-67.12,0-.91,0-1.86-.11-2.73.08-.5.11-1.26.71-1.27,1.1-.09,4.45-.06,8.91-.06,13.65h74.21v11.14Zm-175.54,22.09c-2.99-18.05-5.88-35.53-8.81-53.21-5.19.24-9.97.46-15.03.69.21,1.41.32,2.54.54,3.65,4.59,23.37,9.21,46.74,13.75,70.12.32,1.67,1.06,2.17,2.65,2.22,4.23.15,8.47.39,12.69.72,1.46.12,2.1-.3,2.4-1.75,2.65-12.67,5.37-25.33,8.05-37.99.91-4.31,1.79-8.63,2.68-12.94,1.91,7.68,3.45,15.31,5.03,22.93,2.04,9.83,4.09,19.66,6.21,29.47.16.73.89,1.86,1.42,1.9,4.63.34,9.27.53,13.91.64,2.09.05,3.15-1.06,3.64-3.23,5.6-24.68,11.29-49.34,16.96-74.01.53-2.3,1.02-4.6,1.6-7.22-5.81.31-11.18.55-16.54.94-.45.03-1.09.94-1.2,1.52-2.06,11.43-4.06,22.88-6.04,34.32-1.24,7.13-2.44,14.27-3.66,21.4-1.63-5.8-2.87-11.61-4.06-17.42-2.45-12.03-4.87-24.07-7.27-36.12-.27-1.35-.56-2.3-2.31-2.15-4.3.36-8.62.63-12.94.8-1.45.06-1.98.59-2.27,1.98-2.09,9.99-4.27,19.96-6.43,29.93-1.61,7.44-3.24,14.88-4.97,22.81Z"/>
  </g>
</svg>